<?xml version="1.0" encoding="UTF-8"?><svg xmlns="http://www.w3.org/2000/svg" viewBox="0 0 445.039 181.417"><defs><style>.cls-1{fill:none;}.cls-2{fill:#fbba00;}.cls-3{fill:#e72c5b;}.cls-4{fill:#51b9a3;}.cls-5{fill:#2a2171;}.cls-6{fill:#2e8bcb;}.cls-7{fill:#582b86;}</style></defs><g id="Background"><rect class="cls-1" width="445.039" height="181.417"/></g><g id="Logo"><g><g><path class="cls-6" d="M357.482,8.331c-.704,15.849-5.46,24.302-28.526,28.351-.707,.175-1.057,.703-1.057,1.232s.175,1.057,1.407,1.411c6.713,2.292,14.116,3.696,20.605,3.696,26.531,0,39.797-15.145,39.797-39.268,0-.703-.354-1.232-1.232-1.232-13.913,0-26.769,2.818-29.762,4.225-.704,.353-1.232,.529-1.232,1.585"/><path class="cls-4" d="M441.628,59.75c.528-.175,.882-.703,.882-1.232,0-3.623-.602-16.359-4.932-25.712-.354-.703-.703-.878-1.232-.878-.354,0-.882,.175-1.411,.354-3.346,1.053-9.835,1.407-13.003,1.407-12.856,0-21.998-4.83-26.24-16.024-.35-.703-.704-.882-1.054-.882-.529,0-1.057,.353-1.236,1.057-.525,2.464-.704,4.932-.704,7.221,0,23.675,14.088,36.45,35.397,36.45,3.871,0,10.36-.704,13.532-1.761"/><path class="cls-2" d="M306.415,69.963c25.18,1.411,31.522,12.678,32.047,30.994,0,.878,.529,1.407,1.236,1.407s1.057-.35,1.407-.878c6.251-9.195,8.806-17.788,8.806-26.241,0-17.609-16.969-34.182-41.207-35.393-.882,0-1.407,.354-1.761,1.232-3,8.057-3.381,23.458-2.289,27.648,.175,.704,.704,1.232,1.761,1.232"/><path class="cls-7" d="M358.891,134.765c7.571-13.206,17.256-19.545,28.351-19.545,4.932,0,8.456,1.152,11.62,2.639,.707,.354,1.764-.529,1.236-1.586-6.552-13.283-18.845-19.72-31.347-19.72-11.795,0-25.25,6.619-34.511,20.602-.354,.529-.528,.882-.528,1.407,0,.529,.175,.882,.703,1.411,8.477,8.477,19.545,13.91,22.716,15.145,.529,.175,.704,.175,.879,.175,.354,0,.707-.175,.882-.529"/><path class="cls-3" d="M414.536,126.137c.528,.529,.882,.704,1.407,.704,.529,0,.921-.203,1.411-.529,3.721-2.482,14.778-10.007,18.666-17.959,.529-1.057,.704-1.729,.704-2.114,0-.409-.13-.658-.704-1.232-6.85-6.423-12.856-11.974-12.856-20.077,0-5.723,2.555-10.829,7.749-16.024,.529-.529,.529-.703,.529-1.057,0-.529-.703-1.407-1.939-.879-20.105,6.524-27.823,20.472-27.823,33.633,0,8.341,4.757,17.434,12.856,25.533"/></g><g><path class="cls-5" d="M78.071,131.931h-16.675c-1.087,0-1.812-.725-1.812-1.812v-12.868c0-1.088-1.269-1.269-1.812-.182-6.706,12.325-13.412,16.675-23.199,16.675-18.306,0-32.261-16.312-32.261-43.499,0-26.28,15.043-42.955,32.986-42.955,10.512,0,17.399,5.438,22.474,16.674,.544,1.27,1.812,.726,1.812-.181v-12.869c0-1.087,.726-1.812,1.812-1.812h16.675c1.087,0,1.812,.725,1.812,1.812v79.204c0,1.088-.726,1.812-1.812,1.812Zm-18.487-43.136c0-18.85-9.062-27.912-18.486-27.912-10.513,0-18.306,11.237-18.306,29.361,0,19.756,7.793,29.905,18.306,29.905,9.425,0,18.486-8.155,18.486-28.093v-3.262Z"/><path class="cls-5" d="M167.787,68.134c.182,1.269,1.45,1.269,1.994,.182,6.706-12.506,15.769-21.025,27.73-21.025,12.506,0,21.931,9.062,21.931,24.468v58.36c0,1.088-.726,1.812-1.812,1.812h-16.675c-1.087,0-1.812-.725-1.812-1.812v-55.098c0-9.969-3.625-14.138-10.149-14.138-8.7,0-19.574,11.6-19.574,34.799v34.437c0,1.088-.726,1.812-1.812,1.812h-16.675c-1.087,0-1.812-.725-1.812-1.812v-55.098c0-9.969-3.625-14.138-10.149-14.138-8.699,0-19.574,11.6-19.574,34.799v34.437c0,1.088-.725,1.812-1.812,1.812h-16.675c-1.087,0-1.812-.725-1.812-1.812V50.915c0-1.087,.726-1.812,1.812-1.812h15.769c1.088,0,1.812,.725,1.812,1.812v15.95c0,1.087,1.269,1.45,1.994,.181,6.524-11.418,14.861-19.755,26.461-19.755s18.85,8.156,20.843,20.843Z"/><path class="cls-5" d="M263.846,60.34v69.779c0,1.088-.725,1.812-1.812,1.812h-16.493c-1.088,0-1.812-.725-1.812-1.812V60.34h-12.868c-1.088,0-1.812-.725-1.812-1.812v-7.613c0-1.087,.725-1.812,1.812-1.812h13.23c2.719-22.474,19.394-38.061,42.049-38.061h.725c1.088,0,1.812,.725,1.812,1.812v8.881c0,1.087-.725,1.812-1.812,1.812-1.449,0-7.975-.544-13.23-.544-6.162,0-9.787,3.444-9.787,9.787v16.312h21.931c1.087,0,1.812,.725,1.812,1.812v7.613c0,1.087-.726,1.812-1.812,1.812h-21.931Z"/></g><g><path class="cls-5" d="M5.34,178.273H2.311v-23.272h2.618l8.846,11.739h.017l8.829-11.739h2.653v23.272h-3.029v-18.378l-8.043,10.729h-.872l-7.991-10.746v18.395Z"/><path class="cls-5" d="M35.891,177.572c-1.466-.788-2.621-1.9-3.465-3.337-.843-1.437-1.266-3.097-1.266-4.979v-14.271h3.012v14.048c0,1.278,.263,2.442,.788,3.491,.524,1.049,1.285,1.882,2.284,2.498,.999,.617,2.182,.924,3.551,.924,1.346,0,2.517-.304,3.516-.915,.999-.61,1.763-1.437,2.293-2.482,.531-1.043,.796-2.204,.796-3.481v-14.083h3.029v14.271c0,1.848-.41,3.49-1.231,4.927s-1.962,2.558-3.423,3.363c-1.46,.804-3.12,1.206-4.979,1.206-1.802,0-3.436-.394-4.903-1.181Z"/><path class="cls-5" d="M64.372,178.273h-3.029v-20.55h-7.357v-2.721h17.761v2.721h-7.375v20.55Z"/><path class="cls-5" d="M80.055,177.572c-1.466-.788-2.621-1.9-3.465-3.337-.843-1.437-1.266-3.097-1.266-4.979v-14.271h3.012v14.048c0,1.278,.263,2.442,.788,3.491,.524,1.049,1.285,1.882,2.284,2.498,.999,.617,2.182,.924,3.551,.924,1.346,0,2.517-.304,3.516-.915,.999-.61,1.763-1.437,2.293-2.482,.531-1.043,.796-2.204,.796-3.481v-14.083h3.029v14.271c0,1.848-.41,3.49-1.231,4.927s-1.962,2.558-3.423,3.363c-1.46,.804-3.12,1.206-4.979,1.206-1.802,0-3.436-.394-4.903-1.181Z"/><path class="cls-5" d="M116.1,178.273h-15.622v-23.272h15.469v2.755h-12.44v7.375h10.814v2.601h-10.814v7.802h12.593v2.738Z"/><path class="cls-5" d="M134.837,178.273h-14.339v-23.272h3.029v20.533h11.31v2.738Z"/><path class="cls-5" d="M153.027,178.273h-14.339v-23.272h3.029v20.533h11.31v2.738Z"/><path class="cls-5" d="M172.499,178.273h-15.622v-23.272h15.469v2.755h-12.44v7.375h10.814v2.601h-10.814v7.802h12.593v2.738Z"/><path class="cls-5" d="M185.555,178.273v-23.272h8.504c2.43,0,4.571,.485,6.425,1.455,1.853,.97,3.29,2.332,4.312,4.089,1.021,1.758,1.532,3.782,1.532,6.074,0,2.305-.508,4.339-1.523,6.1-1.016,1.763-2.448,3.129-4.296,4.099s-3.981,1.454-6.4,1.454h-8.555Zm8.487-2.738c1.882,0,3.516-.362,4.902-1.086,1.387-.724,2.453-1.751,3.2-3.08,.747-1.329,1.121-2.888,1.121-4.68s-.374-3.365-1.121-4.723-1.819-2.407-3.217-3.148c-1.397-.742-3.049-1.113-4.953-1.113h-5.442v17.83h5.51Z"/><path class="cls-5" d="M211.803,161.077h-2.207l1.934-6.144h2.926l-2.653,6.144Z"/><path class="cls-5" d="M238.839,178.273h-3.217l-2.207-5.271h-11.756l-2.207,5.271h-3.217l9.856-23.272h2.908l9.839,23.272Zm-11.412-19.011l-4.689,11.174h9.599l-4.689-11.174-.086-.394h-.034l-.102,.394Z"/><path class="cls-5" d="M244.426,177.734c-1.375-.69-2.398-1.588-3.071-2.694-.673-1.107-1.01-2.277-1.01-3.508h3.029c0,.833,.246,1.602,.736,2.31,.49,.708,1.198,1.272,2.122,1.694,.924,.423,2.002,.634,3.235,.634,1.996,0,3.522-.365,4.577-1.095,1.054-.73,1.582-1.808,1.582-3.234,0-1.267-.525-2.216-1.575-2.85-1.049-.633-2.549-1.098-4.5-1.394-1.597-.263-3.012-.619-4.244-1.069-1.231-.451-2.267-1.127-3.105-2.028s-1.258-2.082-1.258-3.542c0-1.22,.294-2.316,.881-3.285,.588-.97,1.509-1.743,2.764-2.319,1.254-.576,2.852-.864,4.791-.864,1.779,0,3.299,.279,4.559,.838,1.261,.559,2.213,1.335,2.858,2.327s.967,2.144,.967,3.456h-3.046c0-.776-.208-1.463-.625-2.062s-1.026-1.063-1.831-1.394c-.804-.331-1.776-.496-2.917-.496-1.94,0-3.319,.359-4.141,1.078-.822,.718-1.232,1.631-1.232,2.737,0,1.176,.536,2.071,1.609,2.687,1.071,.617,2.708,1.072,4.911,1.37,2.407,.388,4.374,1.083,5.903,2.087,1.529,1.005,2.293,2.578,2.293,4.724,0,1.437-.368,2.678-1.103,3.721-.736,1.044-1.797,1.84-3.183,2.387-1.387,.548-3.026,.822-4.919,.822-1.996,0-3.682-.345-5.057-1.035Z"/><path class="cls-5" d="M265.25,177.734c-1.375-.69-2.398-1.588-3.071-2.694-.673-1.107-1.01-2.277-1.01-3.508h3.029c0,.833,.246,1.602,.736,2.31,.49,.708,1.198,1.272,2.122,1.694,.924,.423,2.002,.634,3.235,.634,1.996,0,3.522-.365,4.577-1.095,1.054-.73,1.582-1.808,1.582-3.234,0-1.267-.525-2.216-1.575-2.85-1.049-.633-2.549-1.098-4.5-1.394-1.597-.263-3.012-.619-4.244-1.069-1.231-.451-2.267-1.127-3.105-2.028s-1.258-2.082-1.258-3.542c0-1.22,.294-2.316,.881-3.285,.588-.97,1.509-1.743,2.764-2.319,1.254-.576,2.852-.864,4.791-.864,1.779,0,3.299,.279,4.559,.838,1.261,.559,2.213,1.335,2.858,2.327s.967,2.144,.967,3.456h-3.046c0-.776-.208-1.463-.625-2.062s-1.026-1.063-1.831-1.394c-.804-.331-1.776-.496-2.917-.496-1.94,0-3.319,.359-4.141,1.078-.822,.718-1.232,1.631-1.232,2.737,0,1.176,.536,2.071,1.609,2.687,1.071,.617,2.708,1.072,4.911,1.37,2.407,.388,4.374,1.083,5.903,2.087,1.529,1.005,2.293,2.578,2.293,4.724,0,1.437-.368,2.678-1.103,3.721-.736,1.044-1.797,1.84-3.183,2.387-1.387,.548-3.026,.822-4.919,.822-1.996,0-3.682-.345-5.057-1.035Z"/><path class="cls-5" d="M288.162,177.572c-1.466-.788-2.621-1.9-3.465-3.337-.843-1.437-1.266-3.097-1.266-4.979v-14.271h3.012v14.048c0,1.278,.263,2.442,.788,3.491,.524,1.049,1.285,1.882,2.284,2.498,.999,.617,2.182,.924,3.551,.924,1.346,0,2.517-.304,3.516-.915,.999-.61,1.763-1.437,2.293-2.482,.531-1.043,.796-2.204,.796-3.481v-14.083h3.029v14.271c0,1.848-.41,3.49-1.231,4.927s-1.962,2.558-3.423,3.363c-1.46,.804-3.12,1.206-4.979,1.206-1.802,0-3.436-.394-4.903-1.181Z"/><path class="cls-5" d="M308.585,178.273v-23.272h9.89c1.495,0,2.826,.305,3.995,.916,1.17,.61,2.082,1.468,2.738,2.575,.655,1.106,.984,2.378,.984,3.815,0,1.118-.211,2.139-.634,3.063-.422,.924-1.015,1.702-1.779,2.335-.764,.633-1.659,1.086-2.687,1.361l5.613,9.205h-3.49l-5.168-8.761c-.171,.011-.422,.017-.753,.017h-5.68v8.744h-3.029Zm9.821-11.328c.901,0,1.714-.197,2.439-.59,.724-.394,1.292-.938,1.703-1.634s.616-1.494,.616-2.396c0-.866-.211-1.651-.634-2.352-.422-.701-.998-1.252-1.728-1.651-.73-.4-1.546-.599-2.447-.599h-6.742v9.222h6.792Z"/><path class="cls-5" d="M350.592,178.273h-3.217l-2.207-5.271h-11.756l-2.207,5.271h-3.217l9.856-23.272h2.908l9.839,23.272Zm-11.412-19.011l-4.689,11.174h9.599l-4.689-11.174-.086-.394h-.034l-.102,.394Z"/><path class="cls-5" d="M370.887,173.242v-18.241h3.011v23.272h-2.566l-14.322-18.189v18.189h-3.029v-23.272h2.549l14.339,18.241h.018Z"/><path class="cls-5" d="M384.447,177.118c-1.854-1.078-3.316-2.544-4.388-4.398-1.073-1.853-1.609-3.886-1.609-6.1s.536-4.263,1.609-6.117c1.072-1.853,2.534-3.319,4.388-4.397s3.899-1.617,6.135-1.617c1.688,0,3.29,.319,4.808,.959,1.517,.639,2.818,1.591,3.901,2.858,1.084,1.266,1.814,2.8,2.19,4.602h-3.079c-.513-1.836-1.475-3.234-2.883-4.192-1.409-.958-3.083-1.437-5.022-1.437-1.677,0-3.203,.4-4.577,1.199s-2.459,1.911-3.251,3.336c-.793,1.426-1.19,3.029-1.19,4.808,0,1.791,.397,3.395,1.19,4.809s1.877,2.517,3.251,3.31c1.375,.794,2.9,1.19,4.577,1.19,1.928,0,3.596-.479,5.005-1.437,1.408-.958,2.369-2.349,2.883-4.175h3.096c-.376,1.814-1.103,3.354-2.181,4.62s-2.376,2.216-3.893,2.85c-1.517,.633-3.125,.949-4.825,.949-2.236,0-4.281-.538-6.135-1.616Z"/><path class="cls-5" d="M421.673,178.273h-15.622v-23.272h15.469v2.755h-12.44v7.375h10.814v2.601h-10.814v7.802h12.593v2.738Z"/><path class="cls-5" d="M428.269,177.734c-1.375-.69-2.398-1.588-3.071-2.694-.673-1.107-1.01-2.277-1.01-3.508h3.029c0,.833,.246,1.602,.736,2.31,.49,.708,1.198,1.272,2.122,1.694,.924,.423,2.002,.634,3.235,.634,1.996,0,3.522-.365,4.577-1.095,1.054-.73,1.582-1.808,1.582-3.234,0-1.267-.525-2.216-1.575-2.85-1.049-.633-2.549-1.098-4.5-1.394-1.597-.263-3.012-.619-4.244-1.069-1.231-.451-2.267-1.127-3.105-2.028s-1.258-2.082-1.258-3.542c0-1.22,.294-2.316,.881-3.285,.588-.97,1.509-1.743,2.764-2.319,1.254-.576,2.852-.864,4.791-.864,1.779,0,3.299,.279,4.559,.838,1.261,.559,2.213,1.335,2.858,2.327s.967,2.144,.967,3.456h-3.046c0-.776-.208-1.463-.625-2.062s-1.026-1.063-1.831-1.394c-.804-.331-1.776-.496-2.917-.496-1.94,0-3.319,.359-4.141,1.078-.822,.718-1.232,1.631-1.232,2.737,0,1.176,.536,2.071,1.609,2.687,1.071,.617,2.708,1.072,4.911,1.37,2.407,.388,4.374,1.083,5.903,2.087,1.529,1.005,2.293,2.578,2.293,4.724,0,1.437-.368,2.678-1.103,3.721-.736,1.044-1.797,1.84-3.183,2.387-1.387,.548-3.026,.822-4.919,.822-1.996,0-3.682-.345-5.057-1.035Z"/></g></g></g></svg>